<svg width="14" height="18" xmlns="http://www.w3.org/2000/svg"><path d="M11.47 5.702c.26.353 2.53 3.512 2.53 5.882 0 2.027-1.044 3.887-2.864 5.104A7.41 7.41 0 0 1 7 17.938c-2.008 0-3.93-.805-5.271-2.21C.615 14.564 0 13.092 0 11.585 0 7.017 7.397 0 7.397 0s1.107 4.832.77 6.91C8 7.937 11 4.937 11 4.937s.277.501.47.765zm-2.774 5.46c-.076-.102-.184-.298-.184-.298s-1.17 1.17-1.105.77c.131-.811-.301-2.697-.301-2.697S4.22 11.676 4.22 13.458c0 .588.24 1.162.674 1.617a2.85 2.85 0 0 0 2.057.862c.58 0 1.138-.168 1.614-.487.71-.475 1.118-1.201 1.118-1.992 0-.925-.886-2.158-.987-2.295z" fill="#FFF" fill-rule="evenodd"/></svg>