<svg width="42px" height="42px" viewBox="0 0 42 42" version="1.1" xmlns="http://www.w3.org/2000/svg">
    <g fill="none" fill-rule="evenodd">
        <g transform="translate(-32.000000, -610.000000)">
            <g transform="translate(32.000000, 610.000000)">
                <circle id="btn" stroke="#CCD1D7" stroke-width="2" cx="21" cy="21" r="20"></circle>
                <g id="menu" transform="translate(12.000000, 19.000000)" fill="#CCD1D7">
                    <path d="M2.04544118,4 C0.915775208,4 7.10542736e-14,3.1045695 7.10542736e-14,2 C7.10542736e-14,0.8954305 0.915775208,7.10542736e-14 2.04544118,7.10542736e-14 C3.17510714,7.10542736e-14 4.09088235,0.8954305 4.09088235,2 C4.09088235,3.1045695 3.17510714,4 2.04544118,4 Z M9,4 C7.87033403,4 6.95455882,3.1045695 6.95455882,2 C6.95455882,0.8954305 7.87033403,7.10542736e-14 9,7.10542736e-14 C10.129666,7.10542736e-14 11.0454412,0.8954305 11.0454412,2 C11.0454412,3.1045695 10.129666,4 9,4 Z M15.9545588,4 C14.8248929,4 13.9091176,3.1045695 13.9091176,2 C13.9091176,0.8954305 14.8248929,7.10542736e-14 15.9545588,7.10542736e-14 C17.0842248,7.10542736e-14 18,0.8954305 18,2 C18,3.1045695 17.0842248,4 15.9545588,4 Z" id="Combined-Shape"></path>
                </g>
            </g>
        </g>
    </g>
</svg>