<svg width="120" height="120" xmlns="http://www.w3.org/2000/svg"><defs><linearGradient x1="0%" y1="-9.291%" x2="84.899%" y2="88.179%" id="a"><stop stop-color="#EF8D32" offset="0%"/><stop stop-color="#EE0E5C" offset="100%"/></linearGradient></defs><g fill="none" fill-rule="evenodd"><path d="M0 60C0 26.863 26.856 0 60 0c33.137 0 60 26.856 60 60 0 33.137-26.856 60-60 60-33.137 0-60-26.856-60-60z" fill="url(#a)"/><path d="M76.845 48.298c.968 1.317 9.448 13.12 9.448 21.971 0 7.57-3.9 14.52-10.698 19.064C71.032 92.386 65.69 94 60.147 94c-7.5 0-14.677-3.006-19.689-8.25C36.297 81.395 34 75.897 34 70.27 34 53.21 61.628 27 61.628 27s4.136 18.047 2.876 25.811c-.622 3.837 10.583-7.369 10.583-7.369s1.035 1.872 1.758 2.856zM66.481 68.695c-.282-.385-.686-1.115-.686-1.115s-4.373 4.373-4.13 2.876c.492-3.03-1.122-10.073-1.122-10.073S49.76 70.612 49.76 77.269c0 2.196.896 4.341 2.52 6.04 1.956 2.048 4.757 3.22 7.683 3.22a10.8 10.8 0 0 0 6.029-1.82c2.653-1.774 4.175-4.486 4.175-7.44 0-3.455-3.31-8.06-3.687-8.574z" fill="#000"/></g></svg>