<svg width="56" height="56" xmlns="http://www.w3.org/2000/svg"><path d="M27.937 54.133c14.44 0 26.187-11.686 26.187-26.05 0-14.366-11.748-26.052-26.187-26.052-14.44 0-26.187 11.686-26.187 26.051 0 14.365 11.747 26.051 26.187 26.051zm0-53.843c15.404 0 27.937 12.468 27.937 27.792 0 15.325-12.533 27.792-27.937 27.792C12.533 55.874 0 43.407 0 28.082 0 12.758 12.533.29 27.937.29zm14.9 20.722a.614.614 0 0 1-.422.757l-4.934 1.399 4.913 1.47c.324.098.51.44.412.763a.618.618 0 0 1-.767.41l-6.924-2.073c-.003 0-.005-.002-.007-.003-.024-.007-.045-.018-.068-.028-.015-.006-.03-.011-.044-.019a.659.659 0 0 1-.08-.054l-.017-.011a.606.606 0 0 1-.2-.303c-.007-.027-.01-.055-.014-.082l-.005-.025a.552.552 0 0 1 0-.085v-.038c.003-.026.01-.052.015-.077.003-.013.004-.025.008-.038l.002-.006c.007-.021.017-.041.026-.062.007-.017.014-.035.022-.05.009-.015.02-.028.03-.043.011-.018.023-.038.037-.054a.611.611 0 0 1 .254-.177l.04-.017.009-.003 6.954-1.972a.618.618 0 0 1 .76.421zm-23.679 1.83c.421 0 .781-.248.949-.603.093.271.145.56.145.863a2.69 2.69 0 0 1-2.698 2.684 2.69 2.69 0 0 1-2.698-2.684 2.691 2.691 0 0 1 2.698-2.684c.495 0 .957.135 1.356.366-.46.112-.802.521-.802 1.013 0 .577.47 1.044 1.05 1.044zm8.779 16.72c-3.5 0-6.337-2.823-6.337-6.304h12.674c0 3.481-2.837 6.304-6.337 6.304z" fill="#C47229" fill-rule="evenodd"/></svg>