<svg width="116" height="117" xmlns="http://www.w3.org/2000/svg"><path d="M57.87 113.1c29.91 0 54.243-24.416 54.243-54.428 0-30.012-24.333-54.428-54.244-54.428-29.91 0-54.244 24.416-54.244 54.428 0 30.012 24.334 54.428 54.244 54.428zm0-112.494c31.908 0 57.868 26.048 57.868 58.066 0 32.017-25.96 58.066-57.869 58.066S0 90.688 0 58.672C0 26.654 25.96.606 57.87.606zM88.734 43.9a1.284 1.284 0 0 1-.876 1.581l-10.22 2.923 10.177 3.073a1.278 1.278 0 1 1-.735 2.45l-14.343-4.331-.014-.007c-.05-.015-.094-.037-.141-.058-.03-.014-.062-.024-.091-.04a1.364 1.364 0 0 1-.165-.112c-.012-.009-.025-.016-.036-.025a1.267 1.267 0 0 1-.414-.632c-.015-.057-.022-.114-.03-.171-.002-.018-.007-.035-.009-.053a1.162 1.162 0 0 1-.002-.177c0-.026 0-.052.002-.08.006-.054.018-.108.03-.161.007-.026.009-.052.016-.078l.005-.013c.015-.045.035-.087.054-.13.015-.035.028-.072.046-.105.017-.031.04-.058.06-.088.025-.039.049-.08.078-.115.136-.163.316-.29.525-.37.029-.01.056-.024.085-.033l.017-.007 14.406-4.12a1.278 1.278 0 0 1 1.575.88zm-49.05 3.822c.871 0 1.618-.517 1.964-1.259.193.567.302 1.172.302 1.804 0 3.097-2.502 5.608-5.589 5.608-3.086 0-5.588-2.51-5.588-5.608 0-3.096 2.502-5.607 5.588-5.607a5.54 5.54 0 0 1 2.809.765 2.18 2.18 0 0 0 .515 4.297zM57.87 82.656c-7.25 0-13.126-5.897-13.126-13.17h26.253c0 7.273-5.877 13.17-13.127 13.17z" fill="#C3C8CD" fill-rule="evenodd"/></svg>